<?xml version="1.0" standalone="no"?>
<!DOCTYPE svg PUBLIC "-//W3C//DTD SVG 20010904//EN"
 "http://www.w3.org/TR/2001/REC-SVG-20010904/DTD/svg10.dtd">
<svg version="1.0" xmlns="http://www.w3.org/2000/svg"
 width="1024.000000pt" height="1024.000000pt" viewBox="0 0 1024.000000 1024.000000"
 preserveAspectRatio="xMidYMid meet">
<metadata>
Created by potrace 1.11, written by Peter Selinger 2001-2013
</metadata>
<g transform="translate(0.000000,1024.000000) scale(0.100000,-0.100000)"
fill="#000000" stroke="none">
<path d="M4830 8889 c-136 -12 -204 -18 -225 -23 -11 -2 -42 -7 -70 -10 -27
-4 -57 -9 -65 -11 -8 -2 -31 -7 -50 -10 -120 -19 -415 -102 -540 -152 -136
-54 -169 -69 -315 -143 -527 -267 -1022 -718 -1370 -1249 -36 -55 -65 -103
-65 -107 0 -3 -8 -18 -19 -32 -28 -40 -144 -274 -184 -372 -84 -204 -164 -471
-192 -645 -3 -16 -8 -43 -11 -58 -7 -32 -8 -45 -19 -132 -3 -33 -8 -71 -11
-85 -23 -140 -23 -632 1 -800 2 -19 7 -57 10 -85 12 -101 68 -385 80 -405 2
-4 7 -20 9 -37 19 -104 149 -442 236 -609 22 -42 38 -79 36 -83 -2 -3 -405 -6
-895 -5 -490 0 -891 -2 -890 -5 0 -3 50 -42 112 -87 448 -324 1067 -788 1060
-794 -4 -4 -116 -88 -247 -185 -132 -98 -312 -231 -400 -296 -88 -65 -171
-128 -185 -138 -14 -11 -75 -56 -136 -101 -129 -95 -161 -119 -189 -142 -20
-16 24 -17 827 -18 671 0 847 3 848 13 0 6 0 239 0 517 l1 505 73 130 c40 72
82 146 92 165 71 127 95 170 98 170 2 0 14 -18 26 -40 13 -22 27 -40 32 -40
14 0 0 -32 -79 -176 -41 -75 -83 -153 -93 -173 l-19 -36 182 1 c99 1 187 2
194 3 8 1 12 21 12 64 l0 62 61 -65 61 -65 314 0 c173 0 314 2 314 5 0 3 -34
32 -75 65 -177 141 -422 418 -580 655 -212 318 -370 711 -429 1065 -20 119
-26 167 -42 330 -5 56 -5 413 0 460 2 17 7 65 10 108 4 43 9 86 11 95 1 9 6
39 9 65 59 436 269 925 560 1305 246 321 577 617 907 813 101 60 316 169 333
169 4 0 25 9 49 19 149 67 477 155 662 176 33 4 69 9 80 11 110 20 529 23 700
5 453 -49 821 -171 1212 -404 57 -34 113 -69 123 -79 11 -10 22 -18 24 -18 8
0 117 -83 216 -164 86 -71 313 -293 385 -377 358 -419 571 -859 670 -1384 11
-62 23 -157 40 -320 7 -63 7 -427 1 -480 -3 -22 -8 -67 -11 -100 -10 -114 -16
-151 -41 -280 -128 -644 -464 -1208 -989 -1659 -44 -38 -81 -72 -83 -75 -1 -3
140 -6 313 -6 l315 1 49 54 c28 30 50 58 51 63 0 4 5 7 10 7 6 0 10 -26 10
-59 0 -38 4 -60 13 -63 10 -3 357 -2 379 1 4 1 -10 31 -31 69 -21 37 -56 101
-79 142 -22 41 -51 94 -63 117 -25 44 -23 55 20 112 l18 23 33 -58 c18 -33 42
-75 53 -94 10 -19 55 -98 98 -176 l79 -140 0 -517 0 -517 845 0 c465 0 845 2
845 5 0 2 -87 69 -192 147 -106 79 -276 205 -378 280 -102 76 -193 143 -202
150 -9 7 -104 78 -212 158 l-195 145 32 25 c35 28 191 144 337 250 52 39 208
153 345 255 138 102 298 220 357 263 59 42 107 80 108 83 0 3 -401 5 -891 5
-490 -1 -893 2 -895 6 -2 3 14 39 35 80 96 177 207 476 260 699 38 158 38 156
76 414 19 132 26 522 12 719 -5 60 -10 112 -11 115 -2 3 -7 35 -10 71 -10 97
-48 296 -80 420 -116 449 -349 897 -664 1275 -107 128 -408 425 -532 524 -369
295 -735 487 -1163 610 -101 29 -259 66 -327 76 -19 3 -46 7 -60 10 -25 4 -65
10 -155 20 -27 3 -66 8 -85 11 -57 9 -528 11 -620 3z"/>
<path d="M4095 6720 c-131 -22 -251 -114 -304 -235 -37 -82 -46 -222 -20 -303
31 -101 116 -211 195 -255 87 -47 262 -57 366 -19 185 66 290 247 266 456 -21
171 -147 316 -307 351 -48 10 -148 13 -196 5z"/>
<path d="M5978 6724 c-2 -1 -16 -5 -33 -7 -62 -12 -104 -28 -146 -59 -66 -47
-97 -85 -137 -168 -36 -73 -37 -79 -37 -186 0 -107 1 -112 37 -185 78 -156
182 -225 355 -234 222 -11 382 107 436 322 56 222 -91 468 -303 509 -35 6
-168 13 -172 8z"/>
<path d="M2654 5621 c4 -64 8 -132 11 -151 2 -19 7 -55 10 -80 3 -25 7 -56 10
-70 2 -13 7 -42 11 -65 32 -218 168 -567 306 -785 200 -317 490 -610 801 -810
232 -148 542 -273 782 -315 17 -2 41 -7 55 -10 14 -3 45 -8 70 -11 25 -3 56
-7 70 -10 138 -23 429 -22 640 2 404 46 829 224 1153 481 293 233 543 530 700
833 114 221 207 514 233 738 3 26 8 60 10 77 2 16 7 89 10 162 l7 131 -239 -1
-239 -2 -2 -35 c-17 -392 -91 -653 -272 -965 -139 -240 -443 -540 -695 -690
-161 -95 -378 -183 -519 -211 -10 -2 -26 -5 -35 -8 -9 -3 -37 -8 -62 -11 -24
-4 -47 -8 -50 -10 -28 -17 -415 -26 -545 -13 -104 11 -217 31 -305 55 -521
138 -999 534 -1245 1031 -75 152 -145 361 -160 482 -3 19 -7 46 -10 60 -9 45
-22 193 -24 276 l-1 41 -241 0 -240 -1 5 -115z"/>
<path d="M2090 2992 c-7 -3 -10 -286 -10 -823 l0 -819 3033 0 3032 0 -1 818
c-1 449 -2 819 -3 822 -1 5 -6035 7 -6051 2z m1712 -434 c2 -7 4 -44 3 -83
l-1 -70 -139 -2 c-77 -1 -171 -2 -210 -3 l-70 0 3 -63 4 -62 188 0 c123 1 191
-3 193 -10 2 -5 3 -41 2 -80 l0 -70 -150 -2 c-83 -1 -169 -2 -192 -2 l-43 -1
0 -79 0 -79 210 1 c180 2 210 0 211 -13 4 -43 5 -147 1 -157 -3 -10 -80 -13
-338 -13 l-334 0 0 400 0 400 329 0 c254 0 330 -3 333 -12z m533 -275 c-1
-159 1 -294 3 -300 3 -10 51 -13 193 -13 l189 0 1 -55 c0 -30 1 -68 1 -85 0
-16 -1 -37 -1 -45 -1 -13 -43 -15 -316 -15 -293 0 -315 1 -316 18 0 17 0 716
1 760 0 22 2 22 123 22 l122 0 0 -287z m895 -113 l0 -400 -125 0 c-123 0 -125
0 -125 23 -1 125 -1 540 -1 645 l1 132 125 0 125 0 0 -400z m1010 302 l0 -98
-125 1 -125 1 0 -303 0 -303 -125 0 -125 0 -2 302 -3 303 -120 -1 c-140 0
-132 -7 -127 122 l4 74 374 0 374 0 0 -98z m912 41 c1 -32 2 -71 0 -86 l-3
-28 -152 1 c-84 1 -177 1 -208 0 l-57 0 3 -57 c2 -32 3 -60 4 -63 1 -3 85 -5
189 -5 l187 0 3 -81 3 -80 -185 -1 c-102 -1 -190 -4 -195 -7 -5 -4 -9 -39 -8
-79 l2 -72 210 -1 210 -1 3 -92 3 -91 -336 0 c-312 0 -335 1 -335 18 -1 20 -1
714 0 755 l0 27 329 0 329 0 4 -57z"/>
</g>
</svg>
