<?xml version="1.0" encoding="UTF-8" standalone="no"?>
<svg
   xmlns:dc="http://purl.org/dc/elements/1.1/"
   xmlns:cc="http://creativecommons.org/ns#"
   xmlns:rdf="http://www.w3.org/1999/02/22-rdf-syntax-ns#"
   xmlns:svg="http://www.w3.org/2000/svg"
   xmlns="http://www.w3.org/2000/svg"
   viewBox="0 0 97.333336 97.333336"
   height="97.333336"
   width="97.333336"
   xml:space="preserve"
   id="svg2"
   version="1.1"><metadata
     id="metadata8"><rdf:RDF><cc:Work
         rdf:about=""><dc:format>image/svg+xml</dc:format><dc:type
           rdf:resource="http://purl.org/dc/dcmitype/StillImage" /></cc:Work></rdf:RDF></metadata><defs
     id="defs6" /><g
     transform="matrix(1.3333333,0,0,-1.3333333,0,97.333333)"
     id="g10"><g
       transform="scale(0.1)"
       id="g12"><path
         id="path14"
         style="fill:#007b5e;fill-opacity:1;fill-rule:evenodd;stroke:none"
         d="m 465.031,494.406 c 17.442,0 30.176,-7.211 38.395,-21.965 3.851,-6.878 5.871,-14.425 5.871,-22.632 0,-7.543 -1.852,-14.586 -5.371,-21.121 -8.551,-15.422 -21.453,-23.133 -38.895,-23.133 -16.929,0 -29.84,7.035 -38.215,21.125 -4.359,7.199 -6.367,14.918 -6.367,23.129 0,8.207 1.84,15.754 5.856,22.632 8.386,14.754 21.465,21.965 38.726,21.965 z m -195.457,0 c 17.758,0 30.672,-7.211 38.883,-21.965 3.859,-6.878 5.867,-14.425 5.867,-22.632 0,-7.875 -2.008,-15.254 -5.867,-22.129 -8.211,-14.746 -21.125,-22.125 -38.883,-22.125 -17.273,0 -30.176,7.379 -38.23,22.125 -4.016,6.875 -6.035,14.254 -6.035,22.129 0,8.554 2.019,16.265 6.035,23.129 8.722,14.425 21.453,21.468 38.23,21.468 z m 97.723,182.215 c -86.66,0 -160.926,-30.844 -222.449,-92.535 C 83.3203,522.395 52.4844,448.301 52.4844,361.805 c 0,-86.676 30.8359,-160.77 92.3636,-222.129 61.523,-61.3479 135.789,-92.1994 222.449,-92.1994 86.508,0 160.605,30.8515 222.293,92.1994 61.695,61.359 92.531,135.453 92.531,222.129 0,86.496 -30.836,160.59 -92.531,222.281 -61.688,61.691 -135.785,92.535 -222.293,92.535 z m 0,45.258 c 99.246,0 184.066,-35.199 254.476,-105.609 70.415,-70.403 105.614,-155.235 105.614,-254.465 0,-99.082 -35.199,-183.903 -105.614,-254.313 C 551.363,37.082 466.543,1.87891 367.297,1.87891 268.066,1.87891 183.23,37.082 112.996,107.492 42.5859,177.902 7.38672,262.723 7.38672,361.805 c 0,99.23 35.19918,184.062 105.60928,254.465 70.234,70.41 155.07,105.609 254.301,105.609 z M 570.645,390.801 h 50.121 c 0,-70.742 -24.973,-130.926 -74.926,-180.879 -49.957,-49.957 -110.137,-74.942 -180.551,-74.942 -70.41,0 -130.418,24.985 -180.383,74.942 -49.953,49.953 -74.926,110.137 -74.926,180.879 h 50.122 c 0,-56.996 19.945,-105.278 60.183,-145.004 40.055,-39.902 88.336,-59.684 145.004,-59.684 56.668,0 105.113,19.782 145.172,59.684 40.07,39.726 60.184,88.008 60.184,145.004" /></g></g></svg>