<svg xmlns:rdf="http://www.w3.org/1999/02/22-rdf-syntax-ns#" xmlns="http://www.w3.org/2000/svg" xml:space="preserve" height="97.333" width="97.333" version="1.1" xmlns:cc="http://creativecommons.org/ns#" viewBox="0 0 97.333336 97.333336" xmlns:dc="http://purl.org/dc/elements/1.1/"><metadata id="metadata8"><rdf:RDF><cc:Work rdf:about=""><dc:format>image/svg+xml</dc:format><dc:type rdf:resource="http://purl.org/dc/dcmitype/StillImage"/></cc:Work></rdf:RDF></metadata><g id="g10" transform="matrix(1.3333 0 0 -1.3333 0 97.333)"><g id="g12" transform="scale(.1)"><path id="path14" d="m465.03 494.41c17.442 0 30.176-7.211 38.395-21.965 3.851-6.878 5.871-14.425 5.871-22.632 0-7.543-1.852-14.586-5.371-21.121-8.551-15.422-21.453-23.133-38.895-23.133-16.929 0-29.84 7.035-38.215 21.125-4.359 7.199-6.367 14.918-6.367 23.129 0 8.207 1.84 15.754 5.856 22.632 8.386 14.754 21.465 21.965 38.726 21.965zm-195.46 0c17.758 0 30.672-7.211 38.883-21.965 3.859-6.878 5.867-14.425 5.867-22.632 0-7.875-2.008-15.254-5.867-22.129-8.211-14.746-21.125-22.125-38.883-22.125-17.273 0-30.176 7.379-38.23 22.125-4.016 6.875-6.035 14.254-6.035 22.129 0 8.554 2.019 16.265 6.035 23.129 8.722 14.425 21.453 21.468 38.23 21.468zm97.723 182.22c-86.66 0-160.93-30.844-222.45-92.535-61.52-61.7-92.356-135.8-92.356-222.3 0-86.676 30.836-160.77 92.364-222.13 61.523-61.348 135.79-92.199 222.45-92.199 86.508 0 160.6 30.852 222.29 92.199 61.695 61.359 92.531 135.45 92.531 222.13 0 86.496-30.836 160.59-92.531 222.28-61.688 61.691-135.78 92.535-222.29 92.535zm0 45.258c99.246 0 184.07-35.199 254.48-105.61 70.415-70.403 105.61-155.24 105.61-254.46 0-99.082-35.199-183.9-105.61-254.31-70.41-70.428-155.23-105.63-254.47-105.63-99.23-0.0011-184.07 35.202-254.3 105.61-70.414 70.41-105.61 155.23-105.61 254.31 0 99.23 35.199 184.06 105.61 254.46 70.234 70.41 155.07 105.61 254.3 105.61zm203.35-331.09h50.121c0-70.742-24.973-130.93-74.926-180.88-49.957-49.957-110.14-74.942-180.55-74.942s-130.42 24.985-180.38 74.942c-49.953 49.953-74.926 110.14-74.926 180.88h50.122c0-56.996 19.945-105.28 60.183-145 40.055-39.902 88.336-59.684 145-59.684 56.668 0 105.11 19.782 145.17 59.684 40.07 39.726 60.184 88.008 60.184 145" fill-rule="evenodd" fill="#007b5e"/></g></g></svg>
