<svg xmlns:rdf="http://www.w3.org/1999/02/22-rdf-syntax-ns#" xmlns="http://www.w3.org/2000/svg" xml:space="preserve" height="97.333" width="97.333" version="1.1" xmlns:cc="http://creativecommons.org/ns#" viewBox="0 0 97.333336 97.333336" xmlns:dc="http://purl.org/dc/elements/1.1/"><metadata id="metadata8"><rdf:RDF><cc:Work rdf:about=""><dc:format>image/svg+xml</dc:format><dc:type rdf:resource="http://purl.org/dc/dcmitype/StillImage"/></cc:Work></rdf:RDF></metadata><g id="g10" transform="matrix(1.3333 0 0 -1.3333 0 97.333)"><g id="g12" transform="scale(.1)"><path id="path14" d="m173.35 248.48c-0.332 0-0.512 0.164-0.512 0.496zm386.07 0c-20.3-24.98-46.44-45.77-78.12-62.37-31.852-16.761-70.082-25.148-115-25.148-45.094 0-83.656 8.387-115.34 25.148-31.852 16.598-57.668 37.387-77.613 62.371l38.218 31.848c38.727-44.434 90.192-66.73 154.73-66.73 35.367 0 65.707 6.214 90.859 18.785 25.317 12.73 46.27 28.496 62.867 47.433zm-94.387 245.92c17.442 0.332 30.344-7.211 38.895-22.976 3.519-6.2 5.371-13.414 5.371-21.621 0-7.875-1.852-15.086-5.371-21.621-8.883-15.086-21.797-22.633-38.895-22.633-16.929 0-29.84 7.035-38.215 21.125-4.359 7.199-6.367 14.918-6.367 23.129 0 8.207 2.008 15.929 6.367 23.129 8.375 14.425 21.286 21.468 38.215 21.468zm-195.46 0c17.758 0 30.672-7.211 38.883-21.965 3.859-6.878 5.867-14.425 5.867-22.632 0-7.875-2.008-15.254-5.867-22.129-8.211-14.746-21.125-22.125-38.883-22.125-17.273 0-30.176 7.379-38.23 22.125-4.016 6.875-6.035 14.254-6.035 22.129 0 9.218 2.187 16.765 6.546 23.129 8.375 14.425 20.942 21.468 37.719 21.468zm97.723 182.22c-86.66 0-160.93-30.844-222.45-92.535-61.52-61.68-92.356-135.78-92.356-222.28 0-86.676 30.836-160.77 92.364-222.13 61.523-61.348 135.79-92.199 222.45-92.199 86.508 0 160.6 30.852 222.29 92.199 61.695 61.359 92.531 135.45 92.531 222.13 0 86.496-30.836 160.59-92.531 222.28-61.688 61.691-135.78 92.535-222.29 92.535zm0 45.258c99.246 0 184.07-35.199 254.48-105.61 70.415-70.403 105.61-155.24 105.61-254.46 0-99.082-35.199-183.9-105.61-254.31-70.41-70.418-155.23-105.62-254.47-105.62-99.23-0.0011-184.07 35.202-254.3 105.61-70.414 70.41-105.61 155.23-105.61 254.31 0 99.23 35.199 184.06 105.61 254.46 70.234 70.41 155.07 105.61 254.3 105.61" fill-rule="evenodd" fill="#007b5e"/></g></g></svg>
