<?xml version="1.0" encoding="UTF-8" standalone="no"?>
<svg
   xmlns:dc="http://purl.org/dc/elements/1.1/"
   xmlns:cc="http://creativecommons.org/ns#"
   xmlns:rdf="http://www.w3.org/1999/02/22-rdf-syntax-ns#"
   xmlns:svg="http://www.w3.org/2000/svg"
   xmlns="http://www.w3.org/2000/svg"
   viewBox="0 0 97.333336 97.333336"
   height="97.333336"
   width="97.333336"
   xml:space="preserve"
   id="svg2"
   version="1.1"><metadata
     id="metadata8"><rdf:RDF><cc:Work
         rdf:about=""><dc:format>image/svg+xml</dc:format><dc:type
           rdf:resource="http://purl.org/dc/dcmitype/StillImage" /></cc:Work></rdf:RDF></metadata><defs
     id="defs6" /><g
     transform="matrix(1.3333333,0,0,-1.3333333,0,97.333333)"
     id="g10"><g
       transform="scale(0.1)"
       id="g12"><path
         id="path14"
         style="fill:#231f20;fill-opacity:1;fill-rule:evenodd;stroke:none"
         d="m 173.348,248.484 c -0.332,0 -0.512,0.164 -0.512,0.496 z m 386.07,0 C 539.125,223.5 512.98,202.711 481.297,186.113 c -31.852,-16.761 -70.082,-25.148 -115,-25.148 -45.094,0 -83.656,8.387 -115.336,25.148 -31.852,16.598 -57.668,37.387 -77.613,62.371 l 38.218,31.848 c 38.727,-44.434 90.192,-66.73 154.731,-66.73 35.367,0 65.707,6.214 90.859,18.785 25.317,12.73 46.27,28.496 62.867,47.433 z m -94.387,245.922 c 17.442,0.332 30.344,-7.211 38.895,-22.976 3.519,-6.2 5.371,-13.414 5.371,-21.621 0,-7.875 -1.852,-15.086 -5.371,-21.621 -8.883,-15.086 -21.797,-22.633 -38.895,-22.633 -16.929,0 -29.84,7.035 -38.215,21.125 -4.359,7.199 -6.367,14.918 -6.367,23.129 0,8.207 2.008,15.929 6.367,23.129 8.375,14.425 21.286,21.468 38.215,21.468 z m -195.457,0 c 17.758,0 30.672,-7.211 38.883,-21.965 3.859,-6.878 5.867,-14.425 5.867,-22.632 0,-7.875 -2.008,-15.254 -5.867,-22.129 -8.211,-14.746 -21.125,-22.125 -38.883,-22.125 -17.273,0 -30.176,7.379 -38.23,22.125 -4.016,6.875 -6.035,14.254 -6.035,22.129 0,9.218 2.187,16.765 6.546,23.129 8.375,14.425 20.942,21.468 37.719,21.468 z m 97.723,182.215 c -86.66,0 -160.926,-30.844 -222.449,-92.535 C 83.3203,522.395 52.4844,448.301 52.4844,361.805 c 0,-86.676 30.8359,-160.77 92.3636,-222.129 61.523,-61.3479 135.789,-92.1994 222.449,-92.1994 86.508,0 160.605,30.8515 222.293,92.1994 61.695,61.359 92.531,135.453 92.531,222.129 0,86.496 -30.836,160.59 -92.531,222.281 -61.688,61.691 -135.785,92.535 -222.293,92.535 z m 0,45.258 c 99.246,0 184.066,-35.199 254.476,-105.609 70.415,-70.403 105.614,-155.235 105.614,-254.465 0,-99.082 -35.199,-183.903 -105.614,-254.313 C 551.363,37.082 466.543,1.87891 367.297,1.87891 268.066,1.87891 183.23,37.082 112.996,107.492 42.5859,177.902 7.38672,262.723 7.38672,361.805 c 0,99.23 35.19918,184.062 105.60928,254.465 70.234,70.41 155.07,105.609 254.301,105.609" /></g></g></svg>