<?xml version="1.0" encoding="UTF-8" standalone="no"?>
<svg
   xmlns:dc="http://purl.org/dc/elements/1.1/"
   xmlns:cc="http://creativecommons.org/ns#"
   xmlns:rdf="http://www.w3.org/1999/02/22-rdf-syntax-ns#"
   xmlns:svg="http://www.w3.org/2000/svg"
   xmlns="http://www.w3.org/2000/svg"
   viewBox="0 0 97.333336 97.333336"
   height="97.333336"
   width="97.333336"
   xml:space="preserve"
   id="svg2"
   version="1.1"><metadata
     id="metadata8"><rdf:RDF><cc:Work
         rdf:about=""><dc:format>image/svg+xml</dc:format><dc:type
           rdf:resource="http://purl.org/dc/dcmitype/StillImage" /></cc:Work></rdf:RDF></metadata><defs
     id="defs6" /><g
     transform="matrix(1.3333333,0,0,-1.3333333,0,97.333333)"
     id="g10"><g
       transform="scale(0.1)"
       id="g12"><path
         id="path14"
         style="fill:#007b5e;fill-opacity:1;fill-rule:evenodd;stroke:none"
         d="m 367.297,721.879 c 99.246,0 184.066,-35.199 254.476,-105.609 70.415,-70.403 105.614,-155.235 105.614,-254.465 0,-99.082 -35.199,-183.903 -105.614,-254.313 C 551.363,37.082 466.543,1.87891 367.297,1.87891 268.066,1.87891 183.23,37.082 112.996,107.492 42.5859,177.902 7.38672,262.723 7.38672,361.805 c 0,99.23 35.19918,184.062 105.60928,254.465 70.234,70.41 155.07,105.609 254.301,105.609 z m 0,-45.258 c -86.66,0 -160.926,-30.844 -222.449,-92.535 C 83.3203,522.395 52.4844,448.301 52.4844,361.805 c 0,-86.676 30.8359,-160.77 92.3636,-222.129 61.523,-61.3479 135.789,-92.1994 222.449,-92.1994 86.508,0 160.605,30.8515 222.293,92.1994 61.695,61.359 92.531,135.453 92.531,222.129 0,86.496 -30.836,160.59 -92.531,222.281 -61.688,61.691 -135.785,92.535 -222.293,92.535 z M 269.574,494.406 c 17.758,0 30.672,-7.211 38.883,-21.965 3.859,-6.878 5.867,-14.425 5.867,-22.632 0,-7.875 -2.008,-15.254 -5.867,-22.129 -8.211,-14.746 -21.125,-22.125 -38.883,-22.125 -16.777,0 -29.344,7.035 -37.719,21.125 -4.359,6.535 -6.546,14.242 -6.546,23.129 0,9.218 2.187,16.765 6.546,23.129 8.375,14.425 20.942,21.468 37.719,21.468 z m 195.457,0 c 17.442,0 30.344,-7.543 38.895,-22.976 3.519,-6.867 5.371,-14.075 5.371,-21.621 0,-7.875 -2.02,-15.254 -5.871,-22.129 -8.219,-14.746 -20.953,-22.125 -38.395,-22.125 -17.261,0 -30.34,7.379 -38.726,22.125 -4.016,6.875 -5.856,14.254 -5.856,22.129 0,8.207 1.84,15.754 5.856,22.632 8.386,14.754 21.465,21.965 38.726,21.965 z m -291.683,-245.922 -0.512,0.496 c 0,-0.332 0.18,-0.496 0.512,-0.496 z m -7.875,0.496 H 559.418 V 203.719 H 165.473 v 45.261" /></g></g></svg>