<svg xmlns:rdf="http://www.w3.org/1999/02/22-rdf-syntax-ns#" xmlns="http://www.w3.org/2000/svg" xml:space="preserve" height="97.333" width="97.333" version="1.1" xmlns:cc="http://creativecommons.org/ns#" viewBox="0 0 97.333336 97.333336" xmlns:dc="http://purl.org/dc/elements/1.1/"><metadata id="metadata8"><rdf:RDF><cc:Work rdf:about=""><dc:format>image/svg+xml</dc:format><dc:type rdf:resource="http://purl.org/dc/dcmitype/StillImage"/></cc:Work></rdf:RDF></metadata><g id="g10" transform="matrix(1.3333 0 0 -1.3333 0 97.333)"><g id="g12" transform="scale(.1)"><path id="path14" d="m367.3 721.88c99.246 0 184.07-35.199 254.48-105.61 70.415-70.403 105.61-155.24 105.61-254.46 0-99.082-35.199-183.9-105.61-254.31-70.42-70.418-155.24-105.62-254.48-105.62-99.23-0.0011-184.07 35.202-254.3 105.61-70.414 70.41-105.61 155.23-105.61 254.31 0 99.23 35.199 184.06 105.61 254.46 70.234 70.41 155.07 105.61 254.3 105.61zm0-45.258c-86.66 0-160.93-30.844-222.45-92.535-61.53-61.68-92.366-135.78-92.366-222.28 0-86.676 30.836-160.77 92.364-222.13 61.523-61.348 135.79-92.199 222.45-92.199 86.508 0 160.6 30.852 222.29 92.199 61.695 61.359 92.531 135.45 92.531 222.13 0 86.496-30.836 160.59-92.531 222.28-61.688 61.691-135.78 92.535-222.29 92.535zm-97.73-182.21c17.758 0 30.672-7.211 38.883-21.965 3.859-6.878 5.867-14.425 5.867-22.632 0-7.875-2.008-15.254-5.867-22.129-8.211-14.746-21.125-22.125-38.883-22.125-16.777 0-29.344 7.035-37.719 21.125-4.359 6.535-6.546 14.242-6.546 23.129 0 9.218 2.187 16.765 6.546 23.129 8.375 14.425 20.942 21.468 37.719 21.468zm195.46 0c17.442 0 30.344-7.543 38.895-22.976 3.519-6.867 5.371-14.075 5.371-21.621 0-7.875-2.02-15.254-5.871-22.129-8.219-14.746-20.953-22.125-38.395-22.125-17.261 0-30.34 7.379-38.726 22.125-4.016 6.875-5.856 14.254-5.856 22.129 0 8.207 1.84 15.754 5.856 22.632 8.386 14.754 21.465 21.965 38.726 21.965zm-291.68-245.92-0.512 0.496c0-0.332 0.18-0.496 0.512-0.496zm-7.875 0.496h393.94v-45.27h-393.95v45.261" fill-rule="evenodd" fill="#007b5e"/></g></g></svg>
