<svg xmlns:rdf="http://www.w3.org/1999/02/22-rdf-syntax-ns#" xmlns="http://www.w3.org/2000/svg" xml:space="preserve" height="97.333" width="97.333" version="1.1" xmlns:cc="http://creativecommons.org/ns#" viewBox="0 0 97.333336 97.333336" xmlns:dc="http://purl.org/dc/elements/1.1/"><metadata id="metadata8"><rdf:RDF><cc:Work rdf:about=""><dc:format>image/svg+xml</dc:format><dc:type rdf:resource="http://purl.org/dc/dcmitype/StillImage"/></cc:Work></rdf:RDF></metadata><g id="g10" transform="matrix(1.3333 0 0 -1.3333 0 97.333)"><g id="g12" transform="scale(.1)"><path id="path14" d="m367.3 721.88c99.246 0 184.07-35.199 254.48-105.61 70.415-70.403 105.61-155.24 105.61-254.46 0-99.082-35.199-183.9-105.61-254.31-70.42-70.418-155.24-105.62-254.48-105.62-99.23-0.0011-184.07 35.202-254.3 105.61-70.414 70.41-105.61 155.23-105.61 254.31 0 99.23 35.199 184.06 105.61 254.46 70.234 70.41 155.07 105.61 254.3 105.61zm0-45.258c-86.66 0-160.93-30.844-222.45-92.535-61.53-61.68-92.366-135.78-92.366-222.28 0-86.676 30.836-160.77 92.364-222.13 61.523-61.348 135.79-92.199 222.45-92.199 86.508 0 160.6 30.852 222.29 92.199 61.695 61.359 92.531 135.45 92.531 222.13 0 86.496-30.836 160.59-92.531 222.28-61.688 61.691-135.78 92.535-222.29 92.535zm97.734-182.22c17.442 0 30.176-7.211 38.395-21.965 3.851-6.878 5.871-14.425 5.871-22.632 0-8.887-2.184-16.594-6.379-23.129-8.887-14.09-21.457-21.125-37.887-21.125-17.261 0-30.34 7.379-38.726 22.125-4.016 6.875-5.856 14.254-5.856 22.129 0 8.207 2.008 15.929 6.367 23.129 8.375 14.425 21.286 21.468 38.215 21.468zm-195.46 0c17.758 0 31.004-7.543 39.727-22.976 3.347-7.2 5.023-14.41 5.023-21.621 0-7.875-2.008-15.254-5.867-22.129-8.211-14.746-21.125-22.125-38.883-22.125-17.273 0-30.176 7.379-38.23 22.125-4.016 6.875-6.035 14.254-6.035 22.129 0 9.218 2.187 16.765 6.546 23.129 8.375 14.425 20.942 21.468 37.719 21.468zm328.57-293.53-45.09-16.27c-15.766 35.375-40.571 63.879-74.438 85.665-33.859 21.789-71.41 32.691-112.32 32.691-41.242 0-78.797-10.902-112.99-32.691-34.036-21.786-58.676-50.29-74.09-85.665l-45.266 16.262c19.102 46.106 49.789 83.313 92.199 111.65 42.414 28.332 89.18 42.41 140.14 42.41 50.789 0 97.394-14.078 139.8-42.41 42.421-28.336 73.093-65.543 92.035-111.65" fill-rule="evenodd" fill="#007b5e"/></g></g></svg>
