<?xml version="1.0" encoding="UTF-8" standalone="no"?>
<svg
   xmlns:dc="http://purl.org/dc/elements/1.1/"
   xmlns:cc="http://creativecommons.org/ns#"
   xmlns:rdf="http://www.w3.org/1999/02/22-rdf-syntax-ns#"
   xmlns:svg="http://www.w3.org/2000/svg"
   xmlns="http://www.w3.org/2000/svg"
   viewBox="0 0 97.333336 97.333336"
   height="97.333336"
   width="97.333336"
   xml:space="preserve"
   id="svg2"
   version="1.1"><metadata
     id="metadata8"><rdf:RDF><cc:Work
         rdf:about=""><dc:format>image/svg+xml</dc:format><dc:type
           rdf:resource="http://purl.org/dc/dcmitype/StillImage" /></cc:Work></rdf:RDF></metadata><defs
     id="defs6" /><g
     transform="matrix(1.3333333,0,0,-1.3333333,0,97.333333)"
     id="g10"><g
       transform="scale(0.1)"
       id="g12"><path
         id="path14"
         style="fill:#231f20;fill-opacity:1;fill-rule:evenodd;stroke:none"
         d="m 367.297,721.879 c 99.246,0 184.066,-35.199 254.476,-105.609 70.415,-70.403 105.614,-155.235 105.614,-254.465 0,-99.082 -35.199,-183.903 -105.614,-254.313 C 551.363,37.082 466.543,1.87891 367.297,1.87891 268.066,1.87891 183.23,37.082 112.996,107.492 42.5859,177.902 7.38672,262.723 7.38672,361.805 c 0,99.23 35.19918,184.062 105.60928,254.465 70.234,70.41 155.07,105.609 254.301,105.609 z m 0,-45.258 c -86.66,0 -160.926,-30.844 -222.449,-92.535 C 83.3203,522.395 52.4844,448.301 52.4844,361.805 c 0,-86.676 30.8359,-160.77 92.3636,-222.129 61.523,-61.3479 135.789,-92.1994 222.449,-92.1994 86.508,0 160.605,30.8515 222.293,92.1994 61.695,61.359 92.531,135.453 92.531,222.129 0,86.496 -30.836,160.59 -92.531,222.281 -61.688,61.691 -135.785,92.535 -222.293,92.535 z m 97.734,-182.215 c 17.442,0 30.176,-7.211 38.395,-21.965 3.851,-6.878 5.871,-14.425 5.871,-22.632 0,-8.887 -2.184,-16.594 -6.379,-23.129 -8.887,-14.09 -21.457,-21.125 -37.887,-21.125 -17.261,0 -30.34,7.379 -38.726,22.125 -4.016,6.875 -5.856,14.254 -5.856,22.129 0,8.207 2.008,15.929 6.367,23.129 8.375,14.425 21.286,21.468 38.215,21.468 z m -195.457,0 c 17.758,0 31.004,-7.543 39.727,-22.976 3.347,-7.2 5.023,-14.41 5.023,-21.621 0,-7.875 -2.008,-15.254 -5.867,-22.129 -8.211,-14.746 -21.125,-22.125 -38.883,-22.125 -17.273,0 -30.176,7.379 -38.23,22.125 -4.016,6.875 -6.035,14.254 -6.035,22.129 0,9.218 2.187,16.765 6.546,23.129 8.375,14.425 20.942,21.468 37.719,21.468 z M 598.137,200.867 553.051,184.605 c -15.766,35.375 -40.571,63.879 -74.438,85.665 -33.859,21.789 -71.41,32.691 -112.316,32.691 -41.242,0 -78.797,-10.902 -112.988,-32.691 -34.036,-21.786 -58.676,-50.29 -74.09,-85.665 l -45.266,16.262 c 19.102,46.106 49.789,83.313 92.199,111.649 42.414,28.332 89.18,42.41 140.145,42.41 50.789,0 97.394,-14.078 139.805,-42.41 42.421,-28.336 73.093,-65.543 92.035,-111.649" /></g></g></svg>