<?xml version="1.0" encoding="UTF-8" standalone="no"?>
<svg
   xmlns:dc="http://purl.org/dc/elements/1.1/"
   xmlns:cc="http://creativecommons.org/ns#"
   xmlns:rdf="http://www.w3.org/1999/02/22-rdf-syntax-ns#"
   xmlns:svg="http://www.w3.org/2000/svg"
   xmlns="http://www.w3.org/2000/svg"
   viewBox="0 0 188 145.33333"
   height="145.33333"
   width="188"
   xml:space="preserve"
   id="svg2"
   version="1.1"><metadata
     id="metadata8"><rdf:RDF><cc:Work
         rdf:about=""><dc:format>image/svg+xml</dc:format><dc:type
           rdf:resource="http://purl.org/dc/dcmitype/StillImage" /></cc:Work></rdf:RDF></metadata><defs
     id="defs6" /><g
     transform="matrix(1.3333333,0,0,-1.3333333,0,145.33333)"
     id="g10"><g
       transform="scale(0.1)"
       id="g12"><path
         id="path14"
         style="fill:#007b5e;fill-opacity:1;fill-rule:nonzero;stroke:none"
         d="M 266.52,239.48 H 1140 V 2.82813 H 266.52 Z m 571.011,537.606 c 23.539,0 41.258,-9.871 52.649,-29.867 5.316,-10.379 8.097,-20.754 8.097,-31.129 0,-9.367 -2.531,-19.242 -7.336,-29.617 -11.898,-20.754 -29.871,-31.129 -53.41,-31.129 -24.297,0 -41.761,9.617 -52.644,28.851 -6.074,9.368 -8.86,19.996 -8.86,31.895 0,11.894 2.532,22.269 8.102,31.129 10.883,19.996 28.601,29.867 53.402,29.867 z m -269.308,0 c 24.3,0 42.273,-9.871 54.168,-29.867 5.058,-9.364 7.339,-19.742 7.339,-31.129 0,-11.899 -2.281,-22.024 -7.339,-30.375 -11.895,-20.25 -29.868,-30.371 -54.168,-30.371 -24.551,0 -42.266,10.121 -52.645,30.371 -5.312,8.859 -8.101,18.98 -8.101,30.375 0,10.879 2.789,21.512 8.101,31.887 12.402,19.492 29.867,29.109 52.645,29.109 z m 414.593,-142.5 h 68.844 c 0,-96.941 -34.17,-179.707 -103.012,-248.301 -68.593,-68.844 -151.359,-103.269 -248.3,-103.269 -96.942,0 -179.707,34.425 -248.555,103.269 -68.594,68.594 -103.012,151.36 -103.012,248.301 h 69.098 c 0,-78.465 27.59,-145.031 83.019,-199.449 54.672,-54.926 121.239,-82.262 199.45,-82.262 77.957,0 144.527,27.336 199.449,82.262 55.433,55.429 83.019,121.742 83.019,199.449 z M 703.133,1089.93 c 136.68,0 252.855,-48.34 349.287,-145.285 96.94,-96.438 145.54,-213.118 145.54,-350.051 0,-86.055 -19.49,-164.016 -57.96,-233.617 h 260.19 L 1228.33,234.168 1400.19,106.602 h -245.26 v 149.082 l -37.97,67.578 c -1.51,-2.532 -2.78,-4.809 -4.3,-7.09 -1.52,-2.274 -3.03,-4.297 -4.55,-6.324 l 29.61,-54.164 h -57.71 v 19.234 c -0.51,-0.508 -6.33,-6.836 -17.21,-19.234 h -91.878 c 12.402,10.375 25.055,21.515 37.968,33.406 84.28,84.543 126.55,186.293 126.55,305.504 0,119.215 -42.27,220.965 -126.55,305.504 -85.05,85.043 -187.05,127.562 -305.757,127.562 -119.977,0 -221.977,-42.519 -306.012,-127.562 -84.535,-84.539 -126.805,-186.289 -126.805,-305.504 0,-119.211 42.27,-220.961 126.805,-305.504 11.645,-11.891 24.301,-23.031 37.715,-33.406 h -91.879 c -11.391,12.398 -17.211,18.726 -17.211,19.234 v -19.234 h -56.187 l 28.851,53.402 c -3.543,4.051 -6.832,8.605 -9.617,14.176 L 250.824,255.684 V 106.602 H 5.5625 L 177.426,234.168 5.5625,360.977 H 265.758 c -38.473,69.601 -57.957,147.562 -57.957,233.617 0,136.933 48.594,253.613 145.535,350.051 95.926,96.945 212.613,145.285 349.797,145.285 z M 419.145,178.484 V 63.5742 h 97.195 v 26.0703 h -61.508 v 23.0315 h 55.684 v 23.539 h -55.684 v 17.969 h 59.988 v 24.3 z m 136.425,0 V 63.5742 h 91.371 V 91.918 h -55.683 v 86.566 z m 128.325,0 V 63.5742 h 36.449 V 178.484 Z m 73.402,0 v -28.093 h 36.449 V 63.5742 h 35.688 v 86.8168 h 36.191 v 28.093 z m 144.019,0 V 63.5742 h 96.942 V 89.6445 H 936.75 v 23.0315 h 55.684 v 23.539 H 936.75 v 17.969 h 60.242 v 24.3 h -95.676" /></g></g></svg>