<svg xmlns:rdf="http://www.w3.org/1999/02/22-rdf-syntax-ns#" xmlns="http://www.w3.org/2000/svg" xml:space="preserve" height="145.33" width="188" version="1.1" xmlns:cc="http://creativecommons.org/ns#" viewBox="0 0 188 145.33333" xmlns:dc="http://purl.org/dc/elements/1.1/"><metadata id="metadata8"><rdf:RDF><cc:Work rdf:about=""><dc:format>image/svg+xml</dc:format><dc:type rdf:resource="http://purl.org/dc/dcmitype/StillImage"/></cc:Work></rdf:RDF></metadata><g id="g10" transform="matrix(1.3333 0 0 -1.3333 0 145.33)"><g id="g12" transform="scale(.1)"><path id="path14" d="m266.52 239.48h873.48v-236.65h-873.48zm571.01 537.61c23.539 0 41.258-9.871 52.649-29.867 5.316-10.379 8.097-20.754 8.097-31.129 0-9.367-2.531-19.242-7.336-29.617-11.898-20.754-29.871-31.129-53.41-31.129-24.297 0-41.761 9.617-52.644 28.851-6.074 9.368-8.86 19.996-8.86 31.895 0 11.894 2.532 22.269 8.102 31.129 10.883 19.996 28.601 29.867 53.402 29.867zm-269.31 0c24.3 0 42.273-9.871 54.168-29.867 5.058-9.364 7.339-19.742 7.339-31.129 0-11.899-2.281-22.024-7.339-30.375-11.895-20.25-29.868-30.371-54.168-30.371-24.551 0-42.266 10.121-52.645 30.371-5.312 8.859-8.101 18.98-8.101 30.375 0 10.879 2.789 21.512 8.101 31.887 12.402 19.492 29.867 29.109 52.645 29.109zm414.59-142.5h68.844c0-96.941-34.17-179.71-103.01-248.3-68.593-68.844-151.36-103.27-248.3-103.27-96.942 0-179.71 34.425-248.56 103.27-68.594 68.594-103.01 151.36-103.01 248.3h69.098c0-78.465 27.59-145.03 83.019-199.45 54.672-54.926 121.24-82.262 199.45-82.262 77.957 0 144.53 27.336 199.45 82.262 55.433 55.429 83.019 121.74 83.019 199.45zm-279.68 455.31c136.68 0 252.86-48.34 349.29-145.28 96.94-96.438 145.54-213.12 145.54-350.05 0-86.055-19.49-164.02-57.96-233.62h260.19l-171.9-126.78 171.9-127.57h-245.26v149.08l-37.97 67.578c-1.51-2.532-2.78-4.809-4.3-7.09-1.52-2.274-3.03-4.297-4.55-6.324l29.61-54.164h-57.71v19.234c-0.51-0.508-6.33-6.836-17.21-19.234h-91.878c12.402 10.375 25.055 21.515 37.968 33.406 84.28 84.543 126.55 186.29 126.55 305.5 0 119.22-42.27 220.96-126.55 305.5-85.05 85.043-187.05 127.56-305.76 127.56-119.98 0-221.98-42.519-306.01-127.56-84.535-84.539-126.8-186.29-126.8-305.5s42.27-220.96 126.8-305.5c11.645-11.891 24.301-23.031 37.715-33.406h-91.879c-11.391 12.398-17.211 18.726-17.211 19.234v-19.234h-56.187l28.851 53.402c-3.543 4.051-6.832 8.605-9.617 14.176l-37.87-67.59v-149.08h-245.26l171.87 127.57-171.87 126.81h260.2c-38.473 69.601-57.957 147.56-57.957 233.62 0 136.93 48.594 253.61 145.54 350.05 95.926 96.945 212.61 145.28 349.8 145.28zm-283.99-911.42v-114.91h97.195v26.07h-61.508v23.032h55.684v23.539h-55.684v17.969h59.988v24.3zm136.42 0v-114.91h91.371v28.348h-55.683v86.566zm128.32 0v-114.91h36.449v114.91zm73.402 0v-28.093h36.449v-86.816h35.688v86.817h36.191v28.093zm144.02 0v-114.91h96.942v26.074h-61.49v23.032h55.684v23.539h-55.68v17.969h60.242v24.3h-95.676" fill="#007b5e"/></g></g></svg>
